<svg id="Layer_1" data-name="Layer 1" xmlns="http://www.w3.org/2000/svg" viewBox="0 0 751.95 555.87"><defs><style>.cls-1{fill:#e6e6e6;}.cls-2{fill:#fff;}.cls-3{fill:#f2f2f2;}.cls-4{fill:#ffb8b8;}.cls-5{fill:#ffb6b6;}.cls-6{fill:#2f2e41;}.cls-7{fill:#3f3d56;}.cls-8{fill:#cacaca;}.cls-9{fill:#1447e6;}.cls-10{fill:#d1d3d4;}</style></defs><path class="cls-1" d="M533.74,407.7H128.8a13.62,13.62,0,0,1-13.6-13.61V64.37a13.6,13.6,0,0,1,13.6-13.61H533.74a13.62,13.62,0,0,1,13.61,13.61V394.09A13.63,13.63,0,0,1,533.74,407.7Z" transform="translate(0)"/><path class="cls-2" d="M138,60.44a13.13,13.13,0,0,0-13.11,13.11V384.91A13.12,13.12,0,0,0,138,398H415.15A122.67,122.67,0,0,0,537.67,275.5V73.55a13.13,13.13,0,0,0-13.11-13.11Z" transform="translate(0)"/><path class="cls-1" d="M459.9,200.47H386.48a5.77,5.77,0,0,1-5.78-5.77V158.15a5.77,5.77,0,0,1,5.78-5.77H459.9a5.78,5.78,0,0,1,5.78,5.77c4.54,12.94,5.18,25.22,0,36.55A5.78,5.78,0,0,1,459.9,200.47Z" transform="translate(0)"/><path class="cls-2" d="M451.2,196.94H388.82a4.92,4.92,0,0,1-4.91-4.91V161a4.92,4.92,0,0,1,4.91-4.91H451.2a4.91,4.91,0,0,1,4.91,4.91c4.21,11,4.89,21.52,0,31A4.91,4.91,0,0,1,451.2,196.94Z" transform="translate(0)"/><path class="cls-1" d="M447.84,219.62H398.38a5.49,5.49,0,0,1,0-11h49.48a5.49,5.49,0,0,1,0,11Z" transform="translate(0)"/><path class="cls-1" d="M414.58,164.46a2.16,2.16,0,0,0-2.14,2.15v23.26a2.14,2.14,0,0,0,2.14,2.15,2.18,2.18,0,0,0,1.06-.28L436.17,180a2.16,2.16,0,0,0,.81-2.93,2.25,2.25,0,0,0-.82-.8l-20.53-11.56A2.14,2.14,0,0,0,414.58,164.46Z" transform="translate(0)"/><path class="cls-3" d="M714.11,511.36a9.16,9.16,0,0,0-9.79-3.12l-.38.11-3.45,13.46c-.51-2-1.62-6.54-2.31-11l-.06-.36-.35.15a46.74,46.74,0,0,0-10.08,6.07,48.36,48.36,0,0,0-18.08,36.42v.42l.46-.16,9.8-3.5a29.25,29.25,0,0,0,23.57-8.79c4-4.18,6.68-9.55,9.3-14.74.77-1.51,1.56-3.08,2.36-4.58A9.3,9.3,0,0,0,714.11,511.36Z" transform="translate(0)"/><path class="cls-4" d="M464,168.15a7.09,7.09,0,0,0,8.31,5.62,7.25,7.25,0,0,0,1.21-.34l29.27,34,3.71-12.57-29-31.16a7.13,7.13,0,0,0-13.47,4.4Z" transform="translate(0)"/><polygon class="cls-5" points="581.96 545.24 572.27 545.24 567.66 507.87 581.96 507.87 581.96 545.24"/><path class="cls-6" d="M581.7,542.07l-10.35-4.2-.29-.12-5.71,4.32a12.17,12.17,0,0,0-12.16,12.16v.4h31.23V542.07Z" transform="translate(0)"/><polygon class="cls-5" points="651.07 545.24 641.38 545.24 636.77 507.87 651.07 507.87 651.07 545.24"/><path class="cls-6" d="M650.81,542.07l-10.35-4.2-.29-.12-5.71,4.32a12.17,12.17,0,0,0-12.16,12.16v.4h31.24V542.07Z" transform="translate(0)"/><path class="cls-6" d="M628.2,322.09s12.15,12.64,12.15,23-3,24.65,0,27.77,6.84,6.92,2.28,11.48-6.83,6.83-3.8,9.87,1.52,56.2,1.52,56.2l15.95,71.39H636.21l-25.48-71.39L603.9,391.2l-22.11,57,2.44,74.28-21-.61-8.7-79s12.91-75.14,10.64-77.06,0-5.82,0-5.82l6.07-28.77Z" transform="translate(0)"/><path class="cls-7" d="M604.41,232.46s4.13-16.29-14.9-21-73.45-10.67-73.45-10.67l-27.5-29.18-9.32,13.53,30.83,38.31,73,15Z" transform="translate(0)"/><path class="cls-1" d="M483.77,184.2a13.17,13.17,0,0,0,2-3.67l3.94-9.69-1,0A10.23,10.23,0,0,0,476.72,179a11.31,11.31,0,0,0-.15,1.15,6.64,6.64,0,0,0,.65,3.62,3.93,3.93,0,0,0,2.89,2.12A4.36,4.36,0,0,0,483.77,184.2Z" transform="translate(0)"/><path class="cls-1" d="M567.36,335.08l-2.28,16.52s4.56,4.89,6.84,4.28,10.63-4.17,10.63-4.17,9.88,5.39,15.19,6,33.42-3.06,34.18-4.9,9.59-9,9.59-9L638,322.85Z" transform="translate(0)"/><path class="cls-7" d="M641.36,277.3s-1.93,15.93-.41,17.4-1.52,10.68-4.56,16.76,2.28,6.83,2.28,11.39S641,344.11,641,344.11s-23.55,1.52-27.34-2.27-9.88-.76-18.23,7.59-26.5,1.52-30.3-2.28,3-17.47,5.24-20.12-2.2.42-4.48-8,2.2-7.59,6-11.39,0-10.63-3-17.47-.76-57.72-.76-69.87,16.71-13.67,16.71-13.67l6.61-8.32,4.86-6.11,9.53-.38H606l9.21-.37,4.47,5.21,9.88,11.5L641,210.45c9.11,3,6.83,22,6.83,22Z" transform="translate(0)"/><circle class="cls-5" cx="605.28" cy="169.02" r="19.52"/><path class="cls-6" d="M627.91,162.46c-5.37-3.3-4.68-11.91-9.85-14.91a18.42,18.42,0,0,0-17-.72c-3.65-1.56-8-.31-10.93,2.5s-4.49,7-5,11.15A41.84,41.84,0,0,0,586,173c.28-1.65.57-3.3.86-4.95l15.39-3.36-4.08,3.67a27.92,27.92,0,0,0,20.43-3.2c6.7,3,5.49,9.75-.39,18.71C620.53,187.66,634,166.21,627.91,162.46Z" transform="translate(0)"/><path class="cls-1" d="M619.68,196.67l-.13.1a10.19,10.19,0,0,1-5.33,1.44,9.42,9.42,0,0,1-6.78-2.12c-1-1-5,1-7.55,2.14a11.44,11.44,0,0,1-8.53.1l4.86-6.11,8-1.78h2l9,1Z" transform="translate(0)"/><path class="cls-8" d="M750.77,555.56,479,555.87a1.19,1.19,0,0,1,0-2.38h0l271.75-.31a1.19,1.19,0,0,1,0,2.38Z" transform="translate(0)"/><polygon class="cls-7" points="425.38 155.69 423.38 155.69 423.38 12.65 502.04 12.65 502.04 14.65 425.38 14.65 425.38 155.69"/><path class="cls-9" d="M563.21,0h-53a13,13,0,0,0,0,26h53a13,13,0,0,0,0-26Z" transform="translate(0)"/><circle class="cls-9" cx="423.22" cy="156.83" r="11.95"/><path class="cls-3" d="M279.27,201.72l52.41-12.12,15-3.49c1.88-.43,1.1-3.33-.78-2.89l-52.41,12.12-15,3.49c-1.88.43-1.1,3.33.78,2.89Z" transform="translate(0)"/><path class="cls-3" d="M333.39,170.14l28.05,12.91a9.24,9.24,0,0,1,2.66,1.43c.77.76.21,1.49-.42,2.15a64.15,64.15,0,0,1-6,4.93l-11.95,9.72c-1.5,1.22.62,3.35,2.11,2.14L358.27,195l5.2-4.23c1.48-1.2,3.27-2.42,3.86-4.33,1.25-4-3.67-5.61-6.4-6.86l-12.21-5.62-13.8-6.35c-1.74-.8-3.28,1.77-1.53,2.58Z" transform="translate(0)"/><path class="cls-1" d="M720.54,268.38c-5-3.39-11.07-4.64-17-5.07a182.57,182.57,0,0,0-20.26,0q-10.5.42-21,1.52t-20.82,2.9a156.73,156.73,0,0,0-18.33,4,49.33,49.33,0,0,0-15.85,7.66A28.1,28.1,0,0,0,598,291.74a23,23,0,0,0-.9,14.46,17.23,17.23,0,0,0,3.41,6.33,23.64,23.64,0,0,0,6.35,5c5,2.83,10.57,4.53,15.06,8.16a20.6,20.6,0,0,1,3.21,3.19,5.81,5.81,0,0,0,2.59,2,5.26,5.26,0,0,0,5.67-1.46,19.75,19.75,0,0,0,2.23-4L638,321a6.83,6.83,0,0,1,.59-1.14c.18-.21-.14,0-.08-.05s.11,0,.14-.05a3.32,3.32,0,0,1,.62-.24q3.27-1.25,6.59-2.42c8.15-2.91,16.4-5.58,24.77-7.75a119.48,119.48,0,0,1,13.1-2.74c5.72-.81,11.52-.72,17.26-1.28,6.18-.6,12.56-1.85,17.86-5.25a23.21,23.21,0,0,0,9.6-11.49,16,16,0,0,0,.8-7.12C728.54,276,725,271.4,720.54,268.38Z" transform="translate(0)"/><path class="cls-2" d="M710.31,271.44c-4.51-3.06-10-4.2-15.36-4.59a166.92,166.92,0,0,0-18.31,0q-9.5.38-18.95,1.38t-18.81,2.62a139.79,139.79,0,0,0-16.57,3.62A44.51,44.51,0,0,0,608,281.41a25.3,25.3,0,0,0-8.42,11.14,20.66,20.66,0,0,0-.81,13.06,15.51,15.51,0,0,0,3.08,5.72,21.21,21.21,0,0,0,5.73,4.54c4.48,2.56,9.56,4.1,13.61,7.38a18.93,18.93,0,0,1,2.91,2.89,5.19,5.19,0,0,0,2.33,1.83,4.74,4.74,0,0,0,5.12-1.32,17.53,17.53,0,0,0,2-3.58l2.14-4.13a5.9,5.9,0,0,1,.53-1c.16-.19-.12,0-.07,0s.09,0,.13-.05a2.6,2.6,0,0,1,.55-.21c2-.76,4-1.49,6-2.2,7.36-2.62,14.81-5,22.39-7A108,108,0,0,1,677,305.94c5.16-.74,10.41-.65,15.6-1.16,5.58-.54,11.35-1.67,16.14-4.75a21,21,0,0,0,8.68-10.38,14.62,14.62,0,0,0,.72-6.43C717.54,278.31,714.33,274.16,710.31,271.44Z" transform="translate(0)"/><path class="cls-1" d="M700.85,277l-73.6,13.57a1.63,1.63,0,1,1-.61-3.2h0l73.6-13.58a1.63,1.63,0,1,1,.59,3.21Z" transform="translate(0)"/><path class="cls-1" d="M702.67,286.8l-73.61,13.57a1.63,1.63,0,0,1-.61-3.2h0l73.6-13.58a1.63,1.63,0,1,1,.59,3.21h0Z" transform="translate(0)"/><path class="cls-1" d="M639.45,308.62l-8.57,1.58a1.63,1.63,0,1,1-.59-3.2l8.57-1.58a1.63,1.63,0,1,1,.59,3.2Z" transform="translate(0)"/><circle class="cls-10" cx="631.98" cy="342.68" r="6.92" transform="translate(-51.67 120.31) rotate(-10.45)"/><path class="cls-1" d="M252.34,198.62H189.47a11,11,0,0,1-11-11V146.18a11,11,0,0,1,11-11h62.87a11,11,0,0,1,11,11v41.43A11,11,0,0,1,252.34,198.62Z" transform="translate(0)"/><path class="cls-2" d="M245.43,196.39H190.72a9.59,9.59,0,0,1-9.58-9.58V150.75a9.59,9.59,0,0,1,9.58-9.58h54.71a9.59,9.59,0,0,1,9.58,9.58v36.06A9.59,9.59,0,0,1,245.43,196.39Z" transform="translate(0)"/><path class="cls-1" d="M261.2,236H180.53a1.88,1.88,0,1,1,0-3.76H261.2a1.88,1.88,0,0,1,0,3.76Z" transform="translate(0)"/><path class="cls-1" d="M261.2,225.2H180.53a1.89,1.89,0,0,1,0-3.77H261.2a1.89,1.89,0,0,1,0,3.77Z" transform="translate(0)"/><path class="cls-1" d="M261.2,246.71H180.53a1.89,1.89,0,0,1,0-3.77H261.2a1.89,1.89,0,0,1,0,3.77Z" transform="translate(0)"/><path class="cls-1" d="M261.2,257.46H180.53a1.88,1.88,0,0,1,0-3.76H261.2a1.88,1.88,0,0,1,0,3.76Z" transform="translate(0)"/><path class="cls-1" d="M261.2,268.22H180.53a1.89,1.89,0,0,1,0-3.77H261.2a1.89,1.89,0,0,1,0,3.77Z" transform="translate(0)"/><path class="cls-1" d="M261.2,279H180.53a1.88,1.88,0,1,1,0-3.76H261.2a1.88,1.88,0,0,1,0,3.76Z" transform="translate(0)"/><polygon class="cls-7" points="216.83 254.31 218.83 254.31 218.83 331.35 74.17 331.35 74.17 329.35 216.83 329.35 216.83 254.31"/><path class="cls-9" d="M13,344H66a13,13,0,0,0,0-26H13a13,13,0,0,0,0,26Z" transform="translate(0)"/><circle class="cls-9" cx="219.22" cy="248.17" r="11.95"/><path class="cls-3" d="M281,251.49c17.54,3.72,13.07,4.45,30.61,8.18l15.11,3.21c1.89.4,2.4-2.56.51-3-17.54-3.73-13.07-4.45-30.61-8.18l-15.11-3.21c-1.88-.4-2.4,2.55-.51,3Z" transform="translate(0)"/><path class="cls-3" d="M321.36,242.76l20,23.57a9.09,9.09,0,0,1,1.8,2.42c.38,1-.44,1.44-1.29,1.77a62.88,62.88,0,0,1-7.49,1.94l-14.95,3.75c-1.87.47-.85,3.29,1,2.83l13-3.27,6.5-1.63c1.85-.46,4-.81,5.34-2.29,2.82-3.11-.95-6.64-2.9-8.93l-8.69-10.26-9.82-11.59c-1.24-1.46-3.72.22-2.48,1.69Z" transform="translate(0)"/><circle class="cls-1" cx="384.65" cy="317.69" r="27.78"/><circle class="cls-2" cx="381.94" cy="320.81" r="21.12"/><path class="cls-1" d="M378.16,335.27a3.12,3.12,0,0,1-2.48-1.23l-7.58-10.11a3.09,3.09,0,1,1,4.95-3.71h0l5,6.61,12.73-19.1a3.09,3.09,0,1,1,5.14,3.43h0L380.73,333.9a3.12,3.12,0,0,1-2.49,1.37Z" transform="translate(0)"/><path class="cls-4" d="M644.05,346.31a7.09,7.09,0,0,0,2.52-9.71,6.55,6.55,0,0,0-.73-1l22.31-39-13.09.71L635.4,335.08a7.14,7.14,0,0,0,8.65,11.23Z" transform="translate(0)"/><path class="cls-7" d="M618.93,209.69s23.62-7.6,29.7,10.63,26.5,67.59,26.5,67.59l-22,44.81-9.87-10.63L653.86,291l-30.38-45.57Z" transform="translate(0)"/><path class="cls-1" d="M653.94,328.15a12.86,12.86,0,0,0-2.67-3.2l-7.54-7.26-.42.94a10.24,10.24,0,0,0,4.17,14.69,6.6,6.6,0,0,0,3.6.74,4,4,0,0,0,3-1.9A4.37,4.37,0,0,0,653.94,328.15Z" transform="translate(0)"/><polygon class="cls-7" points="384.41 355.07 382.41 355.07 382.41 432.11 450.07 432.11 450.07 430.11 384.41 430.11 384.41 355.07"/><path class="cls-9" d="M524.24,431.76a13,13,0,0,0-13-13h-53a13,13,0,0,0,0,26h53A13,13,0,0,0,524.24,431.76Z" transform="translate(0)"/><circle class="cls-9" cx="382.02" cy="348.93" r="11.95"/></svg>