<svg id="Layer_1" data-name="Layer 1" xmlns="http://www.w3.org/2000/svg" viewBox="0 0 1033.19 396.76"><defs><style>.cls-1{fill:#e6e6e6;}.cls-2{fill:#fff;}.cls-3{fill:#f2f2f2;}.cls-4{fill:#ffb8b8;}.cls-5{fill:#ffb6b6;}.cls-6{fill:#2f2e41;}.cls-7{fill:#3f3d56;}.cls-8{fill:#cacaca;}.cls-9{fill:#1447e6;}.cls-10{fill:#d1d3d4;}.cls-11{font-size:284px;}.cls-11,.cls-12{font-family:Haettenschweiler;}.cls-12{font-size:36px;}</style></defs><path class="cls-1" d="M438.54,470.56h-289a9.73,9.73,0,0,1-9.71-9.72V225.5a9.71,9.71,0,0,1,9.71-9.71h289a9.71,9.71,0,0,1,9.71,9.71V460.84A9.73,9.73,0,0,1,438.54,470.56Z" transform="translate(-57.58 -179.56)"/><path class="cls-2" d="M156.06,222.7a9.36,9.36,0,0,0-9.35,9.36V454.29a9.36,9.36,0,0,0,9.35,9.36H353.89a87.55,87.55,0,0,0,87.45-87.45V232.06A9.36,9.36,0,0,0,432,222.7Z" transform="translate(-57.58 -179.56)"/><path class="cls-1" d="M385.83,322.65h-52.4a4.14,4.14,0,0,1-4.13-4.12V292.44a4.14,4.14,0,0,1,4.13-4.12h52.4a4.14,4.14,0,0,1,4.13,4.12c3.24,9.23,3.7,18,0,26.09A4.14,4.14,0,0,1,385.83,322.65Z" transform="translate(-57.58 -179.56)"/><path class="cls-2" d="M379.63,320.13H335.1a3.5,3.5,0,0,1-3.5-3.5V294.46a3.5,3.5,0,0,1,3.5-3.5h44.53a3.5,3.5,0,0,1,3.5,3.5c3,7.9,3.49,15.36,0,22.17A3.5,3.5,0,0,1,379.63,320.13Z" transform="translate(-57.58 -179.56)"/><path class="cls-1" d="M377.22,336.31h-35.3a3.92,3.92,0,0,1,0-7.83h35.31a3.92,3.92,0,0,1,0,7.83Z" transform="translate(-57.58 -179.56)"/><path class="cls-1" d="M353.49,297a1.52,1.52,0,0,0-1.53,1.53v16.6a1.52,1.52,0,0,0,1.53,1.53,1.6,1.6,0,0,0,.76-.2l14.65-8.35a1.54,1.54,0,0,0,0-2.67l-14.65-8.25A1.52,1.52,0,0,0,353.49,297Z" transform="translate(-57.58 -179.56)"/><path class="cls-3" d="M567.28,544.55a6.54,6.54,0,0,0-7-2.23l-.27.08-2.46,9.6c-.37-1.43-1.16-4.66-1.65-7.82l0-.26-.24.1a33.8,33.8,0,0,0-7.2,4.34,34.55,34.55,0,0,0-12.91,26v.3l.32-.11,7-2.5a20.85,20.85,0,0,0,16.83-6.28c2.83-3,4.76-6.81,6.64-10.51.55-1.09,1.11-2.2,1.68-3.27A6.65,6.65,0,0,0,567.28,544.55Z" transform="translate(-57.58 -179.56)"/><path class="cls-4" d="M388.74,299.57a5.07,5.07,0,0,0,5.93,4,5,5,0,0,0,.86-.25l20.9,24.31,2.64-9-20.71-22.24a5.09,5.09,0,0,0-9.62,3.13Z" transform="translate(-57.58 -179.56)"/><polygon class="cls-5" points="415.38 389.17 408.46 389.17 405.17 362.5 415.38 362.5 415.38 389.17"/><path class="cls-6" d="M472.77,566.47l-7.39-3-.21-.09-4.07,3.09a8.68,8.68,0,0,0-8.68,8.68v.28h22.29v-9Z" transform="translate(-57.58 -179.56)"/><polygon class="cls-5" points="464.71 389.17 457.79 389.17 454.5 362.5 464.71 362.5 464.71 389.17"/><path class="cls-6" d="M522.1,566.47l-7.39-3-.21-.09-4.07,3.09a8.68,8.68,0,0,0-8.68,8.68v.28H524v-9Z" transform="translate(-57.58 -179.56)"/><path class="cls-6" d="M506,409.45s8.67,9,8.67,16.44-2.16,17.59,0,19.82,4.88,4.94,1.63,8.19-4.88,4.88-2.71,7.05,1.08,40.11,1.08,40.11L526,552H511.68l-18.19-51-4.88-42.28-15.77,40.66,1.74,53-15-.44-6.21-56.38s9.21-53.62,7.59-55,0-4.15,0-4.15L465.31,416Z" transform="translate(-57.58 -179.56)"/><path class="cls-7" d="M489,345.48s2.95-11.62-10.64-15-52.42-7.61-52.42-7.61l-19.63-20.83-6.65,9.66,22,27.34,52.14,10.71Z" transform="translate(-57.58 -179.56)"/><path class="cls-1" d="M402.87,311a9,9,0,0,0,1.41-2.62l2.82-6.91-.73,0a7.3,7.3,0,0,0-8.53,5.82,7.53,7.53,0,0,0-.11.83,4.8,4.8,0,0,0,.46,2.58,2.81,2.81,0,0,0,2.07,1.51A3.09,3.09,0,0,0,402.87,311Z" transform="translate(-57.58 -179.56)"/><path class="cls-1" d="M462.54,418.73l-1.63,11.79s3.25,3.49,4.88,3.05,7.59-3,7.59-3,7.05,3.86,10.84,4.29,23.85-2.18,24.39-3.49,6.85-6.44,6.85-6.44L513,410Z" transform="translate(-57.58 -179.56)"/><path class="cls-7" d="M515.35,377.49s-1.37,11.36-.29,12.41-1.08,7.63-3.25,12,1.62,4.88,1.62,8.13,1.63,15.18,1.63,15.18-16.81,1.09-19.52-1.62-7-.55-13,5.42-18.91,1.08-21.62-1.63S463,414.87,464.65,413s-1.57.3-3.2-5.7,1.57-5.42,4.28-8.13,0-7.59-2.17-12.46-.54-41.2-.54-49.88S475,327.06,475,327.06l4.72-5.94,3.47-4.36,6.79-.27h.18l6.58-.27,3.19,3.72,7.05,8.21,8.13,1.63c6.5,2.17,4.88,15.72,4.88,15.72Z" transform="translate(-57.58 -179.56)"/><circle class="cls-5" cx="432.02" cy="120.64" r="13.93"/><path class="cls-6" d="M505.75,295.51c-3.83-2.35-3.34-8.49-7-10.64a13.14,13.14,0,0,0-12.16-.51,7.33,7.33,0,0,0-7.79,1.78,13,13,0,0,0-3.54,8,29.85,29.85,0,0,0,.63,8.94c.21-1.18.42-2.36.62-3.53l11-2.4-2.92,2.62a20,20,0,0,0,14.59-2.28c4.78,2.14,3.91,6.95-.28,13.34C500.48,313.5,510.12,298.19,505.75,295.51Z" transform="translate(-57.58 -179.56)"/><path class="cls-1" d="M499.88,319.93l-.1.07a7.14,7.14,0,0,1-3.8,1,6.7,6.7,0,0,1-4.84-1.51c-.71-.68-3.53.74-5.39,1.53a8.14,8.14,0,0,1-6.08.07l3.47-4.36,5.71-1.27h1.43l6.41.72Z" transform="translate(-57.58 -179.56)"/><path class="cls-8" d="M593.44,576.1l-194,.21a.85.85,0,1,1,0-1.69h0l194-.22a.85.85,0,1,1,0,1.7Z" transform="translate(-57.58 -179.56)"/><polygon class="cls-7" points="303.62 111.13 302.19 111.13 302.19 9.03 358.34 9.03 358.34 10.46 303.62 10.46 303.62 111.13"/><path class="cls-9" d="M459.57,179.56H421.75a9.28,9.28,0,1,0,0,18.56h37.82a9.28,9.28,0,1,0,0-18.56Z" transform="translate(-57.58 -179.56)"/><circle class="cls-9" cx="302.08" cy="111.94" r="8.53"/><path class="cls-3" d="M256.91,323.54l37.4-8.66,10.74-2.48c1.34-.31.79-2.38-.56-2.07L267.09,319l-10.74,2.48c-1.34.31-.78,2.38.56,2.07Z" transform="translate(-57.58 -179.56)"/><path class="cls-3" d="M295.53,301l20,9.21a6.78,6.78,0,0,1,1.89,1c.56.55.15,1.07-.3,1.54a45,45,0,0,1-4.26,3.52l-8.53,6.93c-1.07.87.44,2.39,1.5,1.53l7.43-6,3.72-3c1.05-.86,2.33-1.73,2.75-3.09.89-2.87-2.61-4-4.56-4.9l-8.72-4-9.85-4.54c-1.25-.57-2.35,1.27-1.1,1.85Z" transform="translate(-57.58 -179.56)"/><path class="cls-1" d="M571.87,371.12c-3.57-2.42-7.9-3.32-12.14-3.62a131.42,131.42,0,0,0-14.45,0q-7.5.3-15,1.09t-14.85,2.07a110.23,110.23,0,0,0-13.09,2.86A35.09,35.09,0,0,0,491.05,379a20,20,0,0,0-6.65,8.79,16.3,16.3,0,0,0-.64,10.32,12.25,12.25,0,0,0,2.43,4.52,16.94,16.94,0,0,0,4.53,3.59c3.54,2,7.55,3.23,10.75,5.82a15.43,15.43,0,0,1,2.29,2.28,4.18,4.18,0,0,0,1.85,1.45,3.76,3.76,0,0,0,4-1,13.64,13.64,0,0,0,1.6-2.83l1.69-3.26a4.15,4.15,0,0,1,.42-.81c.12-.15-.1,0-.06,0s.07,0,.1,0a2.32,2.32,0,0,1,.44-.16q2.34-.9,4.7-1.73c5.82-2.08,11.71-4,17.69-5.54a87,87,0,0,1,9.34-1.95c4.08-.58,8.22-.52,12.32-.91,4.42-.43,9-1.32,12.75-3.75a16.59,16.59,0,0,0,6.86-8.21,11.48,11.48,0,0,0,.57-5.07A13.67,13.67,0,0,0,571.87,371.12Z" transform="translate(-57.58 -179.56)"/><path class="cls-2" d="M564.57,373.3c-3.23-2.19-7.14-3-11-3.27a116.12,116.12,0,0,0-13.06,0q-6.78.27-13.53,1t-13.43,1.87a99.21,99.21,0,0,0-11.82,2.59,31.79,31.79,0,0,0-10.23,4.94,18.13,18.13,0,0,0-6,7.95,14.81,14.81,0,0,0-.58,9.32,11.16,11.16,0,0,0,2.2,4.08,15.37,15.37,0,0,0,4.1,3.25c3.19,1.82,6.82,2.92,9.71,5.26a13.44,13.44,0,0,1,2.07,2.06,3.77,3.77,0,0,0,1.67,1.31,3.42,3.42,0,0,0,3.66-.94,12.38,12.38,0,0,0,1.44-2.56l1.52-2.94a4,4,0,0,1,.38-.74c.12-.13-.09,0-.05,0s.07,0,.09,0a2.74,2.74,0,0,1,.4-.15c1.41-.54,2.82-1.06,4.25-1.56,5.26-1.87,10.57-3.6,16-5a75.91,75.91,0,0,1,8.45-1.77c3.68-.52,7.42-.46,11.13-.82,4-.39,8.1-1.19,11.52-3.39a14.94,14.94,0,0,0,6.19-7.41,10.37,10.37,0,0,0,.52-4.59A12.37,12.37,0,0,0,564.57,373.3Z" transform="translate(-57.58 -179.56)"/><path class="cls-1" d="M557.82,377.25l-52.54,9.69a1.17,1.17,0,0,1-.44-2.29h0L557.39,375a1.16,1.16,0,0,1,1.36.93,1.18,1.18,0,0,1-.93,1.36Z" transform="translate(-57.58 -179.56)"/><path class="cls-1" d="M559.11,384.26,506.58,394a1.16,1.16,0,1,1-.44-2.28h0L558.69,382a1.16,1.16,0,1,1,.42,2.28Z" transform="translate(-57.58 -179.56)"/><path class="cls-1" d="M514,399.84,507.87,401a1.16,1.16,0,0,1-.42-2.29l6.12-1.13a1.16,1.16,0,0,1,.42,2.29Z" transform="translate(-57.58 -179.56)"/><circle class="cls-10" cx="451.09" cy="244.59" r="4.94"/><path class="cls-1" d="M237.69,321.33H192.82a7.87,7.87,0,0,1-7.86-7.86V283.9a7.87,7.87,0,0,1,7.86-7.86h44.87a7.87,7.87,0,0,1,7.85,7.86v29.57A7.87,7.87,0,0,1,237.69,321.33Z" transform="translate(-57.58 -179.56)"/><path class="cls-2" d="M232.76,319.73H193.7a6.83,6.83,0,0,1-6.83-6.83V287.16a6.83,6.83,0,0,1,6.83-6.84h39.06a6.83,6.83,0,0,1,6.83,6.84V312.9A6.83,6.83,0,0,1,232.76,319.73Z" transform="translate(-57.58 -179.56)"/><path class="cls-1" d="M244,348H186.43a1.35,1.35,0,0,1,0-2.69H244a1.35,1.35,0,0,1,0,2.69Z" transform="translate(-57.58 -179.56)"/><path class="cls-1" d="M244,340.29H186.43a1.34,1.34,0,1,1,0-2.68H244a1.34,1.34,0,1,1,0,2.68Z" transform="translate(-57.58 -179.56)"/><path class="cls-1" d="M244,355.65H186.43a1.35,1.35,0,0,1,0-2.69H244a1.35,1.35,0,0,1,0,2.69Z" transform="translate(-57.58 -179.56)"/><path class="cls-1" d="M244,363.32H186.43a1.34,1.34,0,0,1,0-2.68H244a1.34,1.34,0,0,1,0,2.68Z" transform="translate(-57.58 -179.56)"/><path class="cls-1" d="M244,371H186.43a1.35,1.35,0,0,1,0-2.69H244a1.35,1.35,0,0,1,0,2.69Z" transform="translate(-57.58 -179.56)"/><path class="cls-1" d="M244,378.68H186.43a1.35,1.35,0,0,1,0-2.69H244a1.35,1.35,0,0,1,0,2.69Z" transform="translate(-57.58 -179.56)"/><polygon class="cls-7" points="154.76 181.51 156.19 181.51 156.19 236.5 52.94 236.5 52.94 235.08 154.76 235.08 154.76 181.51"/><path class="cls-9" d="M66.85,425.09h37.83a9.28,9.28,0,0,0,0-18.56H66.85a9.28,9.28,0,0,0,0,18.56Z" transform="translate(-57.58 -179.56)"/><circle class="cls-9" cx="156.47" cy="177.13" r="8.53"/><path class="cls-3" d="M258.12,359.06c12.52,2.66,9.33,3.18,21.85,5.84l10.78,2.29c1.35.29,1.72-1.82.37-2.11-12.52-2.66-9.33-3.18-21.85-5.84L258.49,357c-1.35-.29-1.72,1.82-.37,2.11Z" transform="translate(-57.58 -179.56)"/><path class="cls-3" d="M287,352.83l14.25,16.82a6.59,6.59,0,0,1,1.28,1.73c.27.73-.31,1-.92,1.26a44.71,44.71,0,0,1-5.35,1.39l-10.66,2.67c-1.34.34-.62,2.36.71,2l9.29-2.33,4.64-1.16c1.32-.33,2.85-.58,3.81-1.64,2-2.22-.68-4.73-2.07-6.37l-6.2-7.32-7-8.28c-.88-1-2.66.16-1.77,1.21Z" transform="translate(-57.58 -179.56)"/><circle class="cls-1" cx="274.55" cy="226.76" r="19.83"/><circle class="cls-2" cx="272.62" cy="228.98" r="15.07"/><path class="cls-1" d="M327.49,418.86a2.2,2.2,0,0,1-1.77-.88l-5.41-7.21a2.21,2.21,0,1,1,3.53-2.65h0l3.54,4.72,9.09-13.64a2.21,2.21,0,1,1,3.67,2.45h0l-10.82,16.23a2.18,2.18,0,0,1-1.77,1Z" transform="translate(-57.58 -179.56)"/><path class="cls-4" d="M517.27,426.74a5.05,5.05,0,0,0,1.8-6.93,4.62,4.62,0,0,0-.52-.73l15.92-27.82-9.34.51-14,27a5.09,5.09,0,0,0,6.17,8Z" transform="translate(-57.58 -179.56)"/><path class="cls-7" d="M499.34,329.22s16.86-5.42,21.2,7.59,18.91,48.25,18.91,48.25l-15.66,32-7-7.59,7.53-22.22L502.59,354.7Z" transform="translate(-57.58 -179.56)"/><path class="cls-1" d="M524.33,413.78a9.32,9.32,0,0,0-1.91-2.29L517,406.32l-.3.66A7.31,7.31,0,0,0,519,417.06a7.53,7.53,0,0,0,.73.41,4.77,4.77,0,0,0,2.57.53,2.8,2.8,0,0,0,2.17-1.36A3.08,3.08,0,0,0,524.33,413.78Z" transform="translate(-57.58 -179.56)"/><polygon class="cls-7" points="274.38 253.43 272.95 253.43 272.95 308.42 321.24 308.42 321.24 307 274.38 307 274.38 253.43"/><path class="cls-9" d="M431.76,487.73a9.3,9.3,0,0,0-9.28-9.28H384.65a9.28,9.28,0,1,0,0,18.56h37.83A9.29,9.29,0,0,0,431.76,487.73Z" transform="translate(-57.58 -179.56)"/><circle class="cls-9" cx="272.67" cy="249.05" r="8.53"/><text class="cls-11" transform="translate(577.42 280.73)">SIMS</text><text class="cls-12" transform="translate(560.34 338.41)">A student’s internals management system</text></svg>